<?xml version="1.0" standalone="no"?>
<!DOCTYPE svg PUBLIC "-//W3C//DTD SVG 20010904//EN"
 "http://www.w3.org/TR/2001/REC-SVG-20010904/DTD/svg10.dtd">
<svg version="1.0" xmlns="http://www.w3.org/2000/svg"
 width="260.000000pt" height="260.000000pt" viewBox="0 0 260.000000 260.000000"
 preserveAspectRatio="xMidYMid meet">
<metadata>
Created by potrace 1.11, written by Peter Selinger 2001-2013
</metadata>
<g transform="translate(0.000000,260.000000) scale(0.100000,-0.100000)"
fill="#000000" stroke="none">
<path d="M633 2076 c-4 -5 -8 -263 -9 -572 -3 -496 -1 -569 13 -611 36 -106
116 -187 223 -224 62 -21 77 -22 345 -19 154 1 415 4 580 5 165 2 304 3 308 4
4 1 7 29 5 64 l-3 62 -372 -2 c-205 -2 -373 -1 -373 1 0 3 9 20 20 39 36 61
42 98 45 301 2 109 6 201 10 204 3 3 150 6 328 7 178 1 327 4 333 7 7 5 11 83
5 120 -1 4 -151 6 -333 5 l-333 -2 0 305 0 305 -62 3 c-60 3 -63 2 -64 -20 -1
-13 -2 -144 -4 -293 -2 -148 -3 -277 -4 -286 -1 -14 -21 -16 -155 -17 -215 -1
-278 -13 -353 -69 l-31 -24 2 351 c1 235 -2 354 -9 358 -16 10 -106 9 -112 -2z
m658 -803 c2 -294 -5 -354 -48 -411 -48 -64 -89 -82 -189 -84 -123 -2 -168 13
-226 72 -27 28 -51 65 -57 87 -14 50 -14 186 0 234 17 55 65 108 123 135 47
22 63 24 224 24 l172 0 1 -57z"/>
</g>
</svg>
